<svg xmlns="http://www.w3.org/2000/svg" width="1440" height="399" fill="none"><path fill="url(#a)" fill-opacity=".2" d="m51.536 117.559-49.811 6.923A2 2 0 0 0 0 126.463V397a2 2 0 0 0 2 2h1436c1.1 0 2-.895 2-2V42.114c0-1.607-1.8-2.558-3.13-1.653l-61.15 41.675c-.08.055-.16.116-.23.182l-52.55 48.422c-.83.772-2.15.69-2.88-.179l-51.51-60.936-50.31-68.17c-1.01-1.368-3.15-.934-3.55.719l-51.06 212.121c-.35 1.482-2.17 2.036-3.29 1.005l-50.15-46.048a2.048 2.048 0 0 1-.36-.433l-50.62-83.175c-.86-1.41-2.96-1.232-3.57.301l-51 128.278a2.009 2.009 0 0 1-1.33 1.19l-51.604 14.173a2.016 2.016 0 0 0-.549.244l-52.46 33.592a2.1 2.1 0 0 1-.293.155l-50.562 21.583a2 2 0 0 1-2.722-1.341L793.465 83.058a2 2 0 0 0-2.843-1.285l-49.894 25.344a2 2 0 0 0-.996 1.165l-50.903 156.57c-.577 1.775-3.056 1.862-3.756.132L634.506 140.07a2.001 2.001 0 0 0-.74-.911l-50.443-33.801a2 2 0 0 0-2.91.784l-51.625 105.66a1.99 1.99 0 0 1-.644.757l-50.102 35.313a2 2 0 0 1-3.083-1.112L423.956 58.402c-.442-1.63-2.579-2.013-3.56-.638l-50.029 70.195c-.242.34-.585.596-.98.731l-51.252 17.553a2.003 2.003 0 0 1-1.843-.287l-51.243-38.154a2 2 0 0 0-1.695-.332l-51.096 13.188a2.005 2.005 0 0 0-1.25.967l-51.749 93.33a2 2 0 0 1-2.091 1l-50.545-8.781a1.998 1.998 0 0 1-1.38-.955l-51.709-87.695a2 2 0 0 0-1.998-.965Z" opacity=".8"/><defs><linearGradient id="a" x1="720" x2="720" y1="-2" y2="399" gradientUnits="userSpaceOnUse"><stop stop-color="#0ECB78"/><stop offset="1" stop-color="#0ECB78" stop-opacity="0"/></linearGradient></defs></svg>