<svg xmlns="http://www.w3.org/2000/svg" width="72" height="65" fill="none"><path stroke="#123149" stroke-linecap="round" stroke-linejoin="round" stroke-width="2.5" d="M52 13h-3M13 37h3M27.118 49H10.97c-2.38 0-4.661-.952-6.344-2.647A9.073 9.073 0 0 1 2 39.962V11.038c0-2.397.945-4.696 2.627-6.39A8.937 8.937 0 0 1 10.971 2H54.03c2.379 0 4.66.952 6.343 2.647A9.073 9.073 0 0 1 63 11.04v12.653"/><path stroke="#123149" stroke-linecap="round" stroke-linejoin="round" stroke-width="2.5" d="M25.745 32A9.373 9.373 0 1 1 39 18.745M53.5 63a16.5 16.5 0 1 1 0-33 16.5 16.5 0 0 1 0 33Z"/><path stroke="#123149" stroke-linecap="round" stroke-linejoin="round" stroke-width="2.5" d="M53 42v5.402L59 50"/></svg>