<svg xmlns="http://www.w3.org/2000/svg" width="711" height="379" fill="none"><path fill="url(#a)" fill-opacity=".2" d="m24.225 109.118-22.747 6.148A1.999 1.999 0 0 0 0 117.196V377a2 2 0 0 0 2 2h707a2 2 0 0 0 2-2V38.692c0-1.92-2.44-2.737-3.596-1.205l-28.202 37.371-24.788 44.415c-.807 1.446-2.92 1.341-3.58-.177l-24.487-56.329-23.235-61.222c-.74-1.95-3.598-1.607-3.854.464l-24.357 196.773c-.238 1.918-2.786 2.417-3.73.732l-23.016-41.097a2.096 2.096 0 0 1-.164-.38l-23.72-75.782c-.617-1.971-3.454-1.827-3.868.197l-24.357 119.112a2.002 2.002 0 0 1-1.017 1.364l-24.908 13.302a2.005 2.005 0 0 0-.617.512l-25.715 32.018a1.907 1.907 0 0 1-.282.286l-23.157 19.222c-1.211 1.005-3.054.284-3.26-1.276L391.994 77.333c-.217-1.638-2.213-2.321-3.388-1.16L365.83 98.668a2 2 0 0 0-.568 1.093l-24.233 144.939c-.365 2.182-3.479 2.244-3.93.077l-23.832-114.475a2.005 2.005 0 0 0-.372-.81l-23.301-30.362c-1.018-1.327-3.119-.892-3.526.73l-24.995 99.476a2.01 2.01 0 0 1-.324.691l-22.954 31.46c-1.06 1.453-3.349.878-3.597-.903L209.886 56.001c-.287-2.062-3.142-2.367-3.858-.412l-23.118 63.073a1.998 1.998 0 0 1-.769.976l-23.918 15.928a2 2 0 0 1-2.754-.528l-23.992-34.735a2 2 0 0 0-2.543-.65l-23.757 11.924c-.501.251-.873.7-1.027 1.239l-25.281 88.659a2 2 0 0 1-2.564 1.346l-23.134-7.815a2.001 2.001 0 0 1-1.274-1.315L26.66 110.469a2 2 0 0 0-2.436-1.351Z"/><defs><linearGradient id="a" x1="355.5" x2="355.5" y1="-6" y2="379" gradientUnits="userSpaceOnUse"><stop stop-color="#0ECB78"/><stop offset="1" stop-color="#0ECB78" stop-opacity="0"/></linearGradient></defs></svg>