<svg width="100" height="40" viewBox="0 0 100 40" fill="none" xmlns="http://www.w3.org/2000/svg">
<circle cx="23.4811" cy="25.3736" r="1.41838" fill="#11CC7A"/>
<circle cx="1.41838" cy="25.3736" r="1.41838" fill="#AFD37F"/>
<circle cx="23.4811" cy="16.8632" r="1.41838" fill="#11CC7A"/>
<circle cx="1.41838" cy="16.8632" r="1.41838" fill="#AFD37F"/>
<circle cx="6.77916" cy="28.2096" r="1.41838" fill="#AFD37F"/>
<circle cx="6.77916" cy="20.3301" r="1.41838" fill="#AFD37F"/>
<circle cx="18.4415" cy="12.135" r="1.41838" fill="#11CC7A"/>
<circle cx="6.77916" cy="12.135" r="1.41838" fill="#AFD37F"/>
<circle cx="13.0802" cy="17.1778" r="1.41838" fill="#11CC7A"/>
<circle cx="13.0802" cy="9.29789" r="1.41838" fill="#AFD37F"/>
<circle cx="18.4415" cy="6.14665" r="1.41838" fill="#AFD37F"/>
<circle cx="6.77916" cy="6.14665" r="1.41838" fill="#AFD37F"/>
<circle cx="13.0802" cy="1.41838" r="1.41838" fill="#AFD37F"/>
<circle cx="13.0802" cy="38.2958" r="1.41838" fill="#11CC7A"/>
<circle cx="13.0802" cy="31.362" r="1.41838" fill="#11CC7A"/>
<circle cx="18.4415" cy="28.2096" r="1.41838" fill="#11CC7A"/>
<circle cx="18.4415" cy="20.3301" r="1.41838" fill="#11CC7A"/>
<circle cx="13.0802" cy="24.1123" r="1.41838" fill="#11CC7A"/>
<path d="M44.6762 25.3143C43.6088 25.3143 42.6977 24.9498 41.9427 24.2209V27.7061C41.9427 28.2072 42.0501 28.5196 42.2649 28.6432C42.4862 28.7669 43.0394 28.8287 43.9245 28.8287V29.9026H38.4673V28.8287C39.027 28.8287 39.3785 28.7702 39.5216 28.653C39.6648 28.5424 39.7527 28.422 39.7852 28.2918C39.8178 28.1616 39.834 27.9989 39.834 27.8037V17.6508C39.834 17.1822 39.7917 16.8763 39.7071 16.7331C39.629 16.5899 39.4077 16.5183 39.0433 16.5183H38.3502V15.4444C38.9945 15.4444 39.4989 15.3989 39.8633 15.3078C40.2278 15.2101 40.4881 15.1418 40.6443 15.1028C40.8005 15.0572 40.9665 15.0344 41.1422 15.0344C41.4871 15.0344 41.7117 15.1353 41.8158 15.3371C41.9265 15.5323 41.9818 15.848 41.9818 16.284V16.3133C42.7107 15.4542 43.7032 15.0247 44.9593 15.0247C46.2219 15.0247 47.2405 15.451 48.015 16.3035C48.7894 17.1496 49.1767 18.3797 49.1767 19.9937C49.1767 21.6078 48.7732 22.8997 47.9661 23.8694C47.1656 24.8326 46.069 25.3143 44.6762 25.3143ZM41.8939 20.2768C41.8939 21.4744 42.125 22.4181 42.587 23.1079C43.0491 23.7978 43.6674 24.1428 44.4419 24.1428C45.2099 24.1428 45.8119 23.7913 46.248 23.0884C46.684 22.379 46.902 21.4353 46.902 20.2573C46.902 18.3764 46.4465 17.1333 45.5353 16.5281C45.2099 16.3068 44.8259 16.1962 44.3833 16.1962C43.9408 16.1962 43.5665 16.3003 43.2607 16.5085C42.9548 16.7168 42.7009 17.0032 42.4992 17.3676C42.0957 18.1096 41.8939 19.0793 41.8939 20.2768Z" fill="#123149"/>
<path d="M50.9144 20.1206C50.9144 19.3397 51.0348 18.6205 51.2756 17.9632C51.5229 17.2993 51.8646 16.7494 52.3007 16.3133C53.1598 15.4542 54.302 15.0247 55.7273 15.0247C57.1656 15.0247 58.3241 15.4575 59.2027 16.3231C60.0878 17.1822 60.5304 18.4057 60.5304 19.9937C60.5304 21.5752 60.1236 22.8574 59.3101 23.8401C58.4965 24.8229 57.3023 25.3143 55.7273 25.3143C54.1523 25.3143 52.9547 24.8392 52.1347 23.8889C51.3212 22.9322 50.9144 21.6761 50.9144 20.1206ZM55.7273 24.1428C56.4822 24.1428 57.094 23.7978 57.5626 23.1079C58.0377 22.4181 58.2753 21.4483 58.2753 20.1987C58.2753 18.1877 57.7676 16.9316 56.7523 16.4304C56.4399 16.2743 56.0982 16.1962 55.7273 16.1962C54.5232 16.1962 53.739 16.9251 53.3745 18.3829C53.2444 18.8841 53.1793 19.4698 53.1793 20.1402C53.1793 21.4288 53.4136 22.4181 53.8822 23.1079C54.3573 23.7978 54.9723 24.1428 55.7273 24.1428Z" fill="#123149"/>
<path d="M68.2817 25.3143C67.2144 25.3143 66.3032 24.9498 65.5483 24.2209V27.7061C65.5483 28.2072 65.6557 28.5196 65.8704 28.6432C66.0917 28.7669 66.6449 28.8287 67.53 28.8287V29.9026H62.0728V28.8287C62.6326 28.8287 62.984 28.7702 63.1272 28.653C63.2704 28.5424 63.3582 28.422 63.3908 28.2918C63.4233 28.1616 63.4396 27.9989 63.4396 27.8037V17.6508C63.4396 17.1822 63.3973 16.8763 63.3127 16.7331C63.2346 16.5899 63.0133 16.5183 62.6488 16.5183H61.9557V15.4444C62.6 15.4444 63.1044 15.3989 63.4689 15.3078C63.8333 15.2101 64.0937 15.1418 64.2499 15.1028C64.4061 15.0572 64.572 15.0344 64.7477 15.0344C65.0927 15.0344 65.3172 15.1353 65.4214 15.3371C65.532 15.5323 65.5873 15.848 65.5873 16.284V16.3133C66.3162 15.4542 67.3088 15.0247 68.5649 15.0247C69.8275 15.0247 70.846 15.451 71.6205 16.3035C72.395 17.1496 72.7822 18.3797 72.7822 19.9937C72.7822 21.6078 72.3787 22.8997 71.5717 23.8694C70.7712 24.8326 69.6745 25.3143 68.2817 25.3143ZM65.4995 20.2768C65.4995 21.4744 65.7305 22.4181 66.1926 23.1079C66.6547 23.7978 67.273 24.1428 68.0474 24.1428C68.8154 24.1428 69.4174 23.7913 69.8535 23.0884C70.2896 22.379 70.5076 21.4353 70.5076 20.2573C70.5076 18.3764 70.052 17.1333 69.1408 16.5281C68.8154 16.3068 68.4314 16.1962 67.9889 16.1962C67.5463 16.1962 67.1721 16.3003 66.8662 16.5085C66.5603 16.7168 66.3065 17.0032 66.1047 17.3676C65.7012 18.1096 65.4995 19.0793 65.4995 20.2768Z" fill="#123149"/>
<path d="M74.3247 24.0451C74.8909 24.0451 75.2782 23.967 75.4864 23.8108C75.7012 23.6546 75.8086 23.3846 75.8086 23.0006V12.4279C75.8086 11.9593 75.7663 11.6534 75.6817 11.5102C75.6036 11.367 75.3823 11.2954 75.0178 11.2954H74.2271V10.2215C74.8844 10.2215 75.3986 10.176 75.7695 10.0849C76.1405 9.98725 76.4041 9.91891 76.5603 9.87986C76.723 9.8343 76.8922 9.81152 77.0679 9.81152C77.4064 9.81152 77.6309 9.90915 77.7415 10.1044C77.8587 10.2996 77.9173 10.6186 77.9173 11.0611V23.0006C77.9173 23.4041 78.0019 23.6807 78.1711 23.8304C78.3468 23.9736 78.7503 24.0451 79.3816 24.0451V25.119H74.3247V24.0451Z" fill="#123149"/>
<path d="M89.4076 22.7858C89.4076 23.5603 89.5606 23.9475 89.8665 23.9475C90.1593 23.9475 90.3741 23.8499 90.5108 23.6546C90.6475 23.4529 90.7158 23.0917 90.7158 22.571H91.7409C91.7474 22.6556 91.7506 22.789 91.7506 22.9713C91.7506 23.557 91.6042 24.0647 91.3113 24.4942C90.9534 25.0409 90.3839 25.3143 89.6029 25.3143C89.0952 25.3143 88.6624 25.1711 88.3045 24.8847C87.9465 24.5983 87.6992 24.2209 87.5625 23.7523C86.6188 24.7936 85.4246 25.3143 83.9797 25.3143C83.1857 25.3143 82.4926 25.0832 81.9003 24.6211C81.3146 24.1525 81.0217 23.5017 81.0217 22.6686C81.0217 21.2238 82.0891 20.1564 84.2238 19.4666C85.5775 19.037 86.3878 18.7409 86.6546 18.5782C86.9215 18.409 87.0939 18.2398 87.172 18.0705C87.2566 17.8948 87.299 17.6996 87.299 17.4848C87.299 17.1008 87.1102 16.7819 86.7327 16.5281C86.3553 16.2677 85.8639 16.1376 85.2586 16.1376C84.6533 16.1376 84.1197 16.3003 83.6576 16.6257C83.983 16.8665 84.1457 17.1756 84.1457 17.5531C84.1457 17.9306 84.0188 18.2332 83.765 18.461C83.5176 18.6888 83.215 18.8027 82.857 18.8027C82.5056 18.8027 82.2127 18.6953 81.9784 18.4806C81.7506 18.2658 81.6367 17.9664 81.6367 17.5824C81.6367 16.8209 82.0207 16.2059 82.7887 15.7373C83.5567 15.2622 84.4906 15.0247 85.5905 15.0247C87.556 15.0247 88.7568 15.6625 89.1929 16.9381C89.336 17.3611 89.4076 17.8493 89.4076 18.4025V22.7858ZM85.1024 20.3549C84.5297 20.6023 84.1001 20.9212 83.8138 21.3117C83.5274 21.6957 83.3842 22.1154 83.3842 22.571C83.3842 23.0266 83.5079 23.3715 83.7552 23.6058C84.0025 23.8401 84.3116 23.9573 84.6826 23.9573C85.4376 23.9573 86.0624 23.6937 86.557 23.1665C87.0516 22.6328 87.299 21.8909 87.299 20.9407V19.4373C86.8824 19.6521 86.4399 19.8473 85.9713 20.023C85.5092 20.1987 85.2196 20.3094 85.1024 20.3549Z" fill="#123149"/>
<path d="M92.3266 24.0451C92.8863 24.0451 93.2378 23.9898 93.3809 23.8792C93.5241 23.762 93.6087 23.6384 93.6348 23.5082C93.6673 23.378 93.6836 23.2153 93.6836 23.0201V17.641C93.6836 17.1724 93.6413 16.8665 93.5567 16.7233C93.4786 16.5801 93.2605 16.5085 92.9026 16.5085H92.3071V15.4347C92.9254 15.4347 93.4037 15.3891 93.7422 15.298C94.0871 15.2004 94.3312 15.132 94.4743 15.093C94.624 15.0474 94.7835 15.0247 94.9527 15.0247C95.2846 15.0247 95.5059 15.1223 95.6165 15.3175C95.7337 15.5128 95.7923 15.8317 95.7923 16.2743V16.4695C96.352 15.8122 96.9865 15.3696 97.6959 15.1418C97.9498 15.0637 98.2036 15.0247 98.4574 15.0247C98.9455 15.0247 99.323 15.1646 99.5898 15.4444C99.8632 15.7243 99.9999 16.0692 99.9999 16.4793C99.9999 16.8893 99.8697 17.2245 99.6094 17.4848C99.349 17.7451 99.0334 17.8753 98.6624 17.8753C98.298 17.8753 97.9953 17.7451 97.7545 17.4848C97.5202 17.2245 97.4161 16.899 97.4421 16.5085C97.1753 16.5476 96.8889 16.6713 96.583 16.8795C96.2836 17.0813 96.0201 17.3579 95.7923 17.7093V22.9322C95.7923 23.1795 95.8118 23.378 95.8508 23.5277C95.8964 23.6709 96.0103 23.7946 96.1925 23.8987C96.3813 23.9963 96.941 24.0451 97.8717 24.0451V25.119H92.3266V24.0451Z" fill="#123149"/>
</svg>
