<svg xmlns="http://www.w3.org/2000/svg" width="51" height="57" fill="none"><mask id="a" fill="#fff"><path d="M47.232 43.017c1.754 1.343 2.105 3.878.526 5.424a28.085 28.085 0 1 1 1.464-38.59c1.457 1.66.915 4.162-.935 5.369L32.848 25.285c-2.312 1.507-2.439 4.848-.247 6.526l14.631 11.206Z"/></mask><path stroke="#133249" stroke-width="4" d="M47.232 43.017c1.754 1.343 2.105 3.878.526 5.424a28.085 28.085 0 1 1 1.464-38.59c1.457 1.66.915 4.162-.935 5.369L32.848 25.285c-2.312 1.507-2.439 4.848-.247 6.526l14.631 11.206Z" mask="url(#a)"/></svg>