<svg width="96" height="28" viewBox="0 0 96 28" fill="none" xmlns="http://www.w3.org/2000/svg">
<g id="Group 20893">
<g id="Group">
<path id="Vector" d="M95.8312 8.71554C95.7926 8.39898 95.6329 8.1165 95.3814 7.92022L87.7612 1.97147C87.2432 1.56714 86.4915 1.65899 86.0856 2.1764L78.7036 11.5877L73.8054 14.8671C73.8053 14.8671 73.8052 14.8672 73.805 14.8673L72.4529 15.7725L71.5087 16.4047C71.4921 16.4159 71.4758 16.4273 71.4599 16.4392C71.221 16.6166 71.0589 16.8727 71.0009 17.1663C70.9393 17.4788 71.003 17.7964 71.1804 18.0607L71.181 18.0616C71.181 18.0617 71.181 18.0617 71.1811 18.0618L72.3247 19.7658L72.7208 20.3562L75.0282 23.7944C75.0282 23.7944 75.0282 23.7945 75.0282 23.7945L75.411 24.3649L76.5645 26.0838C76.7945 26.4264 77.1727 26.6117 77.5577 26.6117C77.7861 26.6117 78.017 26.5464 78.2206 26.4101L78.2214 26.4096C78.2215 26.4095 78.2216 26.4095 78.2217 26.4094L80.4637 24.9084L81.4541 25.6815C81.6717 25.8513 81.9305 25.9336 82.1875 25.9336C82.5426 25.9336 82.8943 25.7766 83.1297 25.4765L87.0167 20.5211L92.6835 16.7272C92.6909 16.7229 92.6986 16.7194 92.7058 16.7145L95.0022 15.177C95.2678 14.9992 95.4481 14.7288 95.5099 14.4156C95.5716 14.1031 95.5078 13.7854 95.3305 13.5211L95.3292 13.5193C95.329 13.519 95.3289 13.5188 95.3287 13.5185L94.0288 11.5815L95.5855 9.59683C95.7826 9.34536 95.8699 9.03245 95.8312 8.71554ZM74.1913 17.7942C74.0481 18.5197 73.6695 19.1601 73.1122 19.6305L71.9539 17.9045L71.7866 17.6552C71.7176 17.5524 71.6928 17.4287 71.7168 17.3071C71.7378 17.2005 71.7942 17.1066 71.8772 17.0384C71.889 17.0286 71.9015 17.0194 71.9144 17.0107L72.5689 16.5726L73.8914 15.6872C74.2277 16.3336 74.3343 17.0692 74.1913 17.7942ZM77.8152 25.8037C77.6017 25.9461 77.3125 25.8895 77.1701 25.6772L77.1541 25.6535L75.8486 23.7081C77.1828 23.0164 78.8298 23.3367 79.7982 24.4761L77.8152 25.8037ZM82.5558 25.0263C82.3976 25.228 82.1046 25.2641 81.9028 25.1065L81.1017 24.4811L85.0646 21.8279L82.5558 25.0263ZM92.3195 13.7874C92.4627 13.062 92.8413 12.4215 93.3986 11.9512L94.7236 13.9256C94.7922 14.0283 94.8168 14.1516 94.7928 14.2729C94.7688 14.3949 94.6986 14.5002 94.5952 14.5694L92.6186 15.8928C92.2829 15.2469 92.1766 14.5119 92.3195 13.7874ZM95.0116 9.14665L93.6013 10.9446L89.9452 5.49641C89.5788 4.95041 88.8358 4.80407 88.289 5.17013L85.0583 7.33313C84.6665 7.59548 85.0722 8.20129 85.464 7.93918L86.1023 7.51181C86.8712 8.45771 88.0127 8.96525 89.1743 8.96525C89.8204 8.96525 90.4725 8.80758 91.0703 8.48178L92.9904 11.343C92.2727 11.9241 91.7849 12.7295 91.604 13.6461C91.4232 14.5618 91.5678 15.4909 92.0098 16.3002L86.5594 19.9492C86.5589 19.9496 86.5583 19.95 86.5578 19.9503L80.4066 24.0686C79.2098 22.5979 77.1122 22.1887 75.4404 23.1L73.5202 20.2386C74.2379 19.6575 74.7257 18.8521 74.9066 17.9354C75.0875 17.0192 74.9426 16.0894 74.4998 15.2797L83.77 9.07324C84.1617 8.81088 83.756 8.20493 83.3642 8.46719L80.6555 10.2807L86.6595 2.62652C86.8177 2.42485 87.1105 2.38877 87.3125 2.5464L94.9326 8.4951C95.0303 8.57133 95.0923 8.68097 95.1073 8.80393C95.1223 8.92709 95.0884 9.04878 95.0116 9.14665ZM88.6948 5.77846C88.9086 5.63547 89.1982 5.69206 89.3407 5.90448L90.0087 6.89983L90.6622 7.87364C89.328 8.56535 87.681 8.24505 86.7127 7.10559L88.6948 5.77846Z" fill="#133249"/>
<path id="Vector_2" d="M80.5875 11.8145C79.5243 12.5264 78.8024 13.6092 78.5548 14.8637C78.3073 16.1176 78.5634 17.3929 79.2758 18.4545C79.9908 19.5199 81.0786 20.2418 82.3389 20.4872C82.7873 20.5745 82.9333 19.8601 82.4783 19.7714C81.4098 19.5633 80.4875 18.9513 79.8814 18.0481C79.2775 17.1483 79.0605 16.0675 79.2703 15.0049C79.4801 13.9417 80.092 13.0238 80.9933 12.4205C82.8535 11.175 85.3814 11.6736 86.6284 13.5318C87.2323 14.4316 87.4493 15.5124 87.2395 16.5751C87.0297 17.6383 86.4178 18.5561 85.5165 19.1594C85.1619 19.3968 84.776 19.576 84.3696 19.6919C83.9162 19.8211 84.1161 20.5224 84.5696 20.3932C85.0492 20.2564 85.5043 20.0452 85.9223 19.7654C86.9855 19.0535 87.7074 17.9707 87.955 16.7163C88.2025 15.4623 87.9464 14.1871 87.234 13.1254C85.7631 10.9338 82.7816 10.3456 80.5875 11.8145Z" fill="#133249"/>
<path id="Vector_3" d="M88.8084 12.4368C88.8782 12.4368 88.9487 12.4168 89.011 12.3751L90.7276 11.2258C90.8949 11.1137 90.9397 10.8873 90.8278 10.7199C90.7157 10.5526 90.4892 10.5078 90.3219 10.6198L88.6052 11.769C88.4379 11.8811 88.3931 12.1076 88.5051 12.2749C88.5754 12.38 88.6908 12.4368 88.8084 12.4368Z" fill="#133249"/>
<path id="Vector_4" d="M77.4988 19.2049L75.7822 20.3542C75.6149 20.4662 75.5701 20.6926 75.682 20.86C75.7524 20.9651 75.8678 21.0219 75.9854 21.0219C76.0551 21.0219 76.1256 21.0019 76.1879 20.9602L77.9045 19.8109C78.0718 19.6989 78.1166 19.4724 78.0047 19.305C77.8925 19.1377 77.6661 19.0928 77.4988 19.2049Z" fill="#133249"/>
<path id="Vector_5" d="M84.5501 18.4273C84.825 18.837 85.4103 18.4004 85.1556 18.021L84.9592 17.7282C85.4849 17.1863 85.5021 16.4367 85.2629 15.9064C84.8679 15.0312 84.0558 14.9589 83.2312 15.1533L82.404 13.9205C82.6118 13.8531 82.7737 13.8707 82.7897 13.8726C83.2539 13.9396 83.3612 13.223 82.8973 13.1513C82.8721 13.1475 82.4586 13.0888 81.9882 13.3011L81.8278 13.0621C81.565 12.6706 80.9595 13.0769 81.2222 13.4684L81.3972 13.7292C81.0183 14.1356 80.9087 14.7327 81.1286 15.2466C81.4507 15.9997 82.1725 16.0892 82.8982 15.9658L83.9627 17.5522C83.7517 17.6668 83.582 17.7024 83.2635 17.7063C82.8027 17.7119 82.822 18.4426 83.2723 18.4355C83.7692 18.4295 84.0562 18.3409 84.3703 18.1595L84.5501 18.4273ZM82.1817 15.291C82.0306 15.2799 81.8804 15.1499 81.7991 14.9598C81.7293 14.7967 81.705 14.5639 81.8232 14.3639L82.4438 15.2886C82.3503 15.2954 82.2619 15.2969 82.1817 15.291ZM83.6895 15.7912C84.2896 15.6374 84.5366 16.0701 84.5981 16.2064C84.7134 16.462 84.7221 16.809 84.5339 17.0945L83.6637 15.7978C83.6724 15.7955 83.6807 15.7935 83.6895 15.7912Z" fill="#133249"/>
</g>
<g id="Ellipse 134">
<mask id="path-6-inside-1_6_1100" fill="white">
<path d="M20.7126 19.1371C21.3703 19.6408 21.502 20.5923 20.9055 21.1671C19.7532 22.2774 18.3451 23.0995 16.7958 23.5546C14.7644 24.1514 12.5958 24.0863 10.6038 23.3688C8.61177 22.6513 6.89976 21.3185 5.71552 19.5634C4.53127 17.8082 3.93622 15.7218 4.01649 13.606C4.09675 11.4903 4.84817 9.45494 6.16199 7.79459C7.47581 6.13423 9.28387 4.935 11.3245 4.37045C13.3651 3.80589 15.5325 3.90531 17.5129 4.65431C19.0232 5.22553 20.365 6.15196 21.4298 7.34631C21.9811 7.96467 21.7776 8.90346 21.0836 9.35588L15.7606 12.8261C14.8935 13.3914 14.846 14.6442 15.6678 15.2735L20.7126 19.1371Z"/>
</mask>
<path d="M20.7126 19.1371C21.3703 19.6408 21.502 20.5923 20.9055 21.1671C19.7532 22.2774 18.3451 23.0995 16.7958 23.5546C14.7644 24.1514 12.5958 24.0863 10.6038 23.3688C8.61177 22.6513 6.89976 21.3185 5.71552 19.5634C4.53127 17.8082 3.93622 15.7218 4.01649 13.606C4.09675 11.4903 4.84817 9.45494 6.16199 7.79459C7.47581 6.13423 9.28387 4.935 11.3245 4.37045C13.3651 3.80589 15.5325 3.90531 17.5129 4.65431C19.0232 5.22553 20.365 6.15196 21.4298 7.34631C21.9811 7.96467 21.7776 8.90346 21.0836 9.35588L15.7606 12.8261C14.8935 13.3914 14.846 14.6442 15.6678 15.2735L20.7126 19.1371Z" stroke="#133249" stroke-width="2" mask="url(#path-6-inside-1_6_1100)"/>
</g>
<g id="Group 20877">
<circle id="Oval" cx="49.3074" cy="13.9917" r="0.906787" transform="rotate(90 49.3074 13.9917)" fill="#0DA864"/>
<circle id="Oval_2" cx="54.3454" cy="13.9917" r="0.906787" transform="rotate(90 54.3454 13.9917)" fill="#0DA864"/>
<circle id="Oval_3" cx="59.3827" cy="13.9917" r="0.906787" transform="rotate(90 59.3827 13.9917)" fill="#0DA864"/>
<circle id="Oval_4" cx="35.8067" cy="13.9917" r="0.906787" transform="rotate(90 35.8067 13.9917)" fill="#0DA864"/>
<circle id="Oval_5" cx="40.2394" cy="13.9917" r="0.906787" transform="rotate(90 40.2394 13.9917)" fill="#0DA864"/>
<circle id="Oval_6" cx="44.8744" cy="13.9917" r="0.906787" transform="rotate(90 44.8744 13.9917)" fill="#0DA864"/>
</g>
</g>
</svg>
