<svg xmlns="http://www.w3.org/2000/svg" width="150" height="32" fill="none"><mask id="b" width="150" height="32" x="0" y="0" maskUnits="userSpaceOnUse" style="mask-type:alpha"><g fill="#123149" clip-path="url(#a)"><path d="M46.977 16.991v-.374c0-.94-.322-1.66-.965-2.16-.624-.518-1.442-.777-2.456-.777-.78 0-1.393.135-1.842.404-.428.249-.838.633-1.227 1.151a.959.959 0 0 1-.38.317 1.458 1.458 0 0 1-.556.086h-.877a.866.866 0 0 1-.585-.23.651.651 0 0 1-.204-.547c.058-.576.34-1.142.847-1.699.527-.576 1.219-1.046 2.076-1.41a6.95 6.95 0 0 1 2.748-.548c1.813 0 3.275.5 4.385 1.497 1.13.999 1.696 2.4 1.696 4.204v8.781a.742.742 0 0 1-.234.547.765.765 0 0 1-.555.23h-1.082a.765.765 0 0 1-.555-.23.742.742 0 0 1-.234-.547v-1.18c-.312.691-.975 1.238-1.988 1.641a8.174 8.174 0 0 1-3.04.605c-.995 0-1.881-.173-2.661-.518-.78-.365-1.384-.855-1.813-1.469a3.654 3.654 0 0 1-.614-2.073c0-1.44.546-2.562 1.638-3.369 1.091-.825 2.543-1.381 4.356-1.67l4.122-.662Zm0 2.304-3.45.547c-1.267.192-2.251.509-2.953.95-.701.422-1.052.96-1.052 1.612 0 .48.224.912.672 1.296.448.384 1.13.576 2.047.576 1.403 0 2.543-.394 3.42-1.18.877-.788 1.316-1.815 1.316-3.081v-.72ZM56.563 25.687a.742.742 0 0 1-.234.547.765.765 0 0 1-.556.23h-1.081a.765.765 0 0 1-.556-.23.742.742 0 0 1-.234-.547V6.799c0-.21.078-.393.234-.547a.764.764 0 0 1 .556-.23h1.081c.215 0 .4.077.556.23a.742.742 0 0 1 .234.547v18.888ZM67.094 24.276c1.949 0 3.265-.749 3.947-2.246.136-.288.273-.49.41-.605.135-.115.32-.172.555-.172h.877c.214 0 .399.076.555.23a.623.623 0 0 1 .234.49c0 .652-.263 1.353-.79 2.101-.526.749-1.286 1.382-2.28 1.9-.994.519-2.163.778-3.508.778-1.384 0-2.583-.288-3.596-.864a5.966 5.966 0 0 1-2.339-2.36c-.546-1.018-.848-2.15-.906-3.398-.02-.23-.03-.672-.03-1.325 0-.46.01-.787.03-.979.175-1.957.848-3.55 2.017-4.779 1.17-1.228 2.777-1.843 4.824-1.843 1.345 0 2.505.26 3.479.778.994.499 1.744 1.123 2.251 1.871.526.73.809 1.42.848 2.073a.622.622 0 0 1-.234.547.765.765 0 0 1-.555.23h-.877c-.234 0-.42-.057-.556-.172-.136-.115-.273-.317-.41-.605-.681-1.497-1.997-2.246-3.946-2.246a4.091 4.091 0 0 0-2.807 1.066c-.799.71-1.257 1.785-1.374 3.224-.02.212-.029.557-.029 1.037 0 .441.01.768.03.979.136 1.44.594 2.514 1.373 3.224.8.71 1.735 1.066 2.807 1.066ZM90.677 25.687a.742.742 0 0 1-.233.547.765.765 0 0 1-.556.23h-1.082a.765.765 0 0 1-.555-.23.742.742 0 0 1-.234-.547v-7.601c0-1.44-.36-2.534-1.081-3.283-.722-.748-1.726-1.123-3.012-1.123-1.267 0-2.27.375-3.011 1.123-.721.749-1.082 1.843-1.082 3.283v7.6a.742.742 0 0 1-.234.548.765.765 0 0 1-.555.23H77.96a.765.765 0 0 1-.555-.23.742.742 0 0 1-.234-.547V6.799c0-.21.078-.393.234-.547a.765.765 0 0 1 .555-.23h1.082c.214 0 .4.077.555.23a.742.742 0 0 1 .234.547v6.363c.429-.556 1.014-1.017 1.754-1.382.76-.384 1.686-.575 2.778-.575 1.228 0 2.319.259 3.274.777a5.409 5.409 0 0 1 2.222 2.246c.546.96.819 2.101.819 3.426v8.033ZM100.922 11.204c2.086 0 3.733.653 4.941 1.958 1.208 1.305 1.813 3.08 1.813 5.327v.777a.742.742 0 0 1-.234.547.765.765 0 0 1-.556.23H96.829v.173c.04 1.267.43 2.265 1.17 2.994.76.71 1.734 1.066 2.923 1.066.975 0 1.725-.125 2.252-.375a4.6 4.6 0 0 0 1.461-1.065c.156-.153.293-.259.409-.316.137-.058.312-.087.527-.087h.877c.234 0 .429.077.584.23a.649.649 0 0 1 .205.547c-.078.519-.37 1.056-.877 1.613-.487.537-1.199.998-2.134 1.382-.916.365-2.017.547-3.304.547-1.247 0-2.358-.278-3.333-.835a6.52 6.52 0 0 1-2.338-2.361c-.566-.998-.907-2.121-1.024-3.369a21.26 21.26 0 0 1-.058-1.324c0-.307.02-.749.058-1.325.117-1.19.458-2.264 1.024-3.224a6.506 6.506 0 0 1 2.31-2.275c.974-.556 2.094-.835 3.361-.835Zm4.122 6.42v-.085c0-1.171-.38-2.102-1.14-2.793-.74-.71-1.734-1.066-2.982-1.066-1.13 0-2.095.356-2.894 1.066-.78.71-1.18 1.64-1.199 2.792v.087h8.215ZM113.863 13.162a5.706 5.706 0 0 1 1.579-1.41c.584-.365 1.364-.548 2.339-.548 2.28 0 3.878.835 4.794 2.505.565-.806 1.208-1.42 1.93-1.842.721-.442 1.666-.663 2.835-.663 1.91 0 3.324.567 4.24 1.7.935 1.132 1.403 2.734 1.403 4.807v7.976a.741.741 0 0 1-.234.546.765.765 0 0 1-.555.23h-1.082a.765.765 0 0 1-.556-.23.74.74 0 0 1-.233-.547V18c0-2.879-1.15-4.319-3.45-4.319-1.053 0-1.891.346-2.515 1.037-.623.69-.935 1.718-.935 3.08v7.89a.741.741 0 0 1-.234.546.765.765 0 0 1-.555.23h-1.082a.765.765 0 0 1-.556-.23.741.741 0 0 1-.234-.547V18c0-2.879-1.149-4.319-3.449-4.319-1.053 0-1.891.346-2.515 1.037-.623.69-.935 1.718-.935 3.08v7.89a.741.741 0 0 1-.234.546.765.765 0 0 1-.555.23h-1.082a.765.765 0 0 1-.556-.23.744.744 0 0 1-.233-.547V12.27c0-.211.078-.394.233-.547a.765.765 0 0 1 .556-.23h1.082c.214 0 .399.076.555.23a.742.742 0 0 1 .234.547v.892ZM141.171 31.243c-.175.46-.458.691-.848.691h-1.199a.68.68 0 0 1-.496-.201.66.66 0 0 1-.205-.49c0-.076.01-.144.029-.201l2.807-6.018-5.789-12.64a.643.643 0 0 1-.029-.2c0-.193.068-.356.204-.49a.685.685 0 0 1 .498-.202h1.198c.39 0 .673.23.848.691l4.502 9.79 4.561-9.79c.175-.46.458-.69.848-.69h1.198c.195 0 .361.066.497.2a.66.66 0 0 1 .205.49c0 .077-.01.144-.029.202l-8.8 18.858ZM25.808 16.94 15.991.272A.543.543 0 0 0 15.517 0a.557.557 0 0 0-.477.267L12.1 5.26a1.059 1.059 0 0 0 0 1.075l6.401 10.873c.097.163.235.3.402.394.167.094.357.144.55.143h5.88a.558.558 0 0 0 .474-.27.531.531 0 0 0 .001-.537ZM.076 25.65 9.892 8.983a.543.543 0 0 1 .475-.268.557.557 0 0 1 .475.268l2.941 4.99a1.062 1.062 0 0 1 0 1.077l-6.4 10.872c-.097.164-.235.3-.402.394a1.111 1.111 0 0 1-.548.144H.55a.556.556 0 0 1-.478-.27.53.53 0 0 1 .003-.54ZM10.84 26.456h19.634a.557.557 0 0 0 .475-.27.53.53 0 0 0-.001-.537l-2.937-4.992a1.084 1.084 0 0 0-.402-.394 1.113 1.113 0 0 0-.55-.144H14.258c-.192 0-.382.05-.549.144-.167.094-.305.23-.402.393l-2.94 4.993a.529.529 0 0 0 .2.735.557.557 0 0 0 .274.072Z"/></g></mask><g mask="url(#b)"><path fill="#A9B5BE" d="M0-7h200v45H0z"/></g><defs><clipPath id="a"><path fill="#fff" d="M0 0h150v31.934H0z"/></clipPath></defs></svg>