<svg xmlns="http://www.w3.org/2000/svg" width="712" height="418" fill="none"><path fill="url(#a)" fill-opacity=".2" d="M53.273 78.465 1.66 87.381A2 2 0 0 0 0 89.351V416a2 2 0 0 0 2 2h708a2 2 0 0 0 2-2V275.178c0-.211-.033-.42-.098-.62l-54.493-167.307a1.995 1.995 0 0 0-.621-.918l-52.199-43.474a2 2 0 0 0-3.141.805L547.87 199.96a2 2 0 0 1-.543.772l-51.854 45.427c-1.146 1.003-2.948.409-3.272-1.079L439.259 2.075c-.389-1.79-2.778-2.158-3.689-.57l-51.851 90.423a2.002 2.002 0 0 1-.952.846l-52.96 22.544a2 2 0 0 1-2.142-.372l-52.962-49.011a2.001 2.001 0 0 0-1.97-.437l-52.805 16.94c-.541.175-.984.57-1.215 1.09l-53.744 120.469a1.999 1.999 0 0 1-2.248 1.14l-52.22-11.276a2 2 0 0 1-1.385-1.098L55.421 79.579a2 2 0 0 0-2.148-1.114Z"/><defs><linearGradient id="a" x1="356" x2="356" y1="-3" y2="418" gradientUnits="userSpaceOnUse"><stop stop-color="#EC3B46"/><stop offset="1" stop-color="#EC3B46" stop-opacity="0"/></linearGradient></defs></svg>